<?xml version="1.0" standalone="no"?>
<!DOCTYPE svg PUBLIC "-//W3C//DTD SVG 20010904//EN"
 "http://www.w3.org/TR/2001/REC-SVG-20010904/DTD/svg10.dtd">
<svg version="1.0" xmlns="http://www.w3.org/2000/svg"
 width="1000.000000pt" height="1000.000000pt" viewBox="0 0 1000.000000 1000.000000"
 preserveAspectRatio="xMidYMid meet">
<metadata>
Created by potrace 1.14, written by Peter Selinger 2001-2017
</metadata>
<g transform="translate(0.000000,1000.000000) scale(0.100000,-0.100000)"
fill="#000000" stroke="none">
<path d="M6605 6453 c-22 -1 -98 -8 -170 -13 -611 -49 -1003 -216 -1129 -480
-46 -96 -60 -186 -53 -340 10 -207 45 -299 152 -398 180 -169 481 -245 1355
-343 610 -68 859 -107 1078 -170 284 -81 413 -178 457 -344 22 -87 20 -276 -4
-354 -78 -250 -349 -389 -891 -456 -173 -22 -706 -31 -928 -16 -598 41 -885
187 -1001 508 -35 96 -50 177 -59 313 l-7 105 -79 3 -79 3 6 -114 c38 -712
465 -976 1577 -977 760 0 1257 127 1497 383 108 116 143 219 143 422 -1 266
-60 397 -235 513 -216 145 -692 255 -1415 327 -131 13 -548 66 -640 81 -353
58 -547 124 -650 220 -94 88 -125 189 -119 382 4 97 7 114 37 174 91 184 338
311 734 377 210 35 312 42 653 48 260 4 366 2 498 -11 683 -65 965 -285 1003
-780 l7 -86 78 0 79 0 0 30 c0 17 -5 74 -11 127 -68 613 -556 878 -1604 871
-132 -1 -258 -3 -280 -5z"/>
<path d="M1760 6393 c0 -3 368 -676 818 -1494 l817 -1489 90 0 90 0 821 1493
820 1492 -79 3 c-44 2 -86 1 -92 -2 -6 -2 -358 -634 -781 -1405 -423 -770
-773 -1399 -777 -1398 -5 1 -356 633 -780 1404 l-772 1402 -87 1 c-49 0 -88
-3 -88 -7z"/>
</g>
</svg>
